<?xml version="1.0" encoding="utf-8"?>
<!-- Generator: Adobe Illustrator 27.1.1, SVG Export Plug-In . SVG Version: 6.00 Build 0)  -->
<svg version="1.1" id="Capa_1" xmlns="http://www.w3.org/2000/svg" xmlns:xlink="http://www.w3.org/1999/xlink" x="0px" y="0px"
	 viewBox="0 0 31.6 31.6" style="enable-background:new 0 0 31.6 31.6;" xml:space="preserve">
<g>
	<path d="M31.1,4.9c-2.7-1.8-5.1-1.4-7.1-0.2c-1.8-1.5-3.4-1.6-3.4-1.6L18,5.6C13.4,3.4,7.6,4.2,3.7,8.1c-4.9,4.9-4.9,12.9,0,17.8
		c4.9,4.9,12.9,4.9,17.8,0c3.9-3.9,4.7-9.7,2.4-14.4L26.5,9c0,0,0-1.2-1-2.6c1.4-0.7,2.8-0.7,4.4,0.4c0.5,0.3,1.2,0.2,1.5-0.3
		C31.8,5.9,31.6,5.2,31.1,4.9z M11.7,9.2c-0.2,0.1-6.1,1.3-6.9,6.7c-0.1,0.6-0.6,1-1.2,0.9c-0.2,0-0.5-0.1-0.6-0.3
		c-0.2-0.2-0.4-0.6-0.3-0.9c1-6.9,8.3-8.5,8.6-8.6c0.6-0.1,1.2,0.3,1.3,0.8C12.7,8.5,12.3,9,11.7,9.2z"/>
</g>
</svg>