<?xml version="1.0" encoding="utf-8"?>
<!-- Generator: Adobe Illustrator 27.1.1, SVG Export Plug-In . SVG Version: 6.00 Build 0)  -->
<svg version="1.1" id="Layer_1" xmlns="http://www.w3.org/2000/svg" xmlns:xlink="http://www.w3.org/1999/xlink" x="0px" y="0px"
	 viewBox="0 0 256 256" style="enable-background:new 0 0 256 256;" xml:space="preserve">
<style type="text/css">
	.st0{fill:#7752A2;}
	.st1{fill:#FFFFFF;}
</style>
<g>
	<path class="st0" d="M56.8,127.7c2.1-0.1,3.6-0.2,4.5-0.2v-4.4h-4.3C56.9,124.1,56.9,125.6,56.8,127.7z"/>
	<path d="M253.4,104.9C231.1,45.2,120,24.2,99,23.1c-22.5-1.1-44.6,3.7-62,18.6C15.1,60.3,3.4,89.2,3,117.8
		c-0.5,39.8,22.5,70.1,60,82.1c15.1,4.8,30.7,6.7,46.4,8.7c-13.9,9.5-31,16.2-51.2,18.5c32.5,10.8,70.2,6.6,102.9-11.1
		c9.4,1.1,18.8,1.7,28.2,1.5c18.2-0.4,39.2-4.3,50.2-20.4C250.4,181.3,260.1,122.9,253.4,104.9z M83.8,127.8
		c0.9,0.8,1.8,2.3,2.5,4.7c0.7,2.1,1,4,1,5.5c0,1.9-1.1,2.9-3.4,2.9c-0.8,0-2-0.1-3.5-0.4c-1.5-0.3-2.4-0.4-2.8-0.4h-4.3
		c-0.1,4.6-0.3,9.5-0.5,14.8c-0.3,1.8-1.1,2.8-2.3,2.9c-1.1,0.2-2.9-0.4-5.5-1.8c-2.6-1.4-4.1-2.4-4.6-3.1c-0.3-0.5-0.5-1.1-0.5-1.7
		s0.2-1.5,0.6-2.5c0.4-1,0.6-1.7,0.6-1.9c0.1-0.8,0.1-3.1,0.3-6.7h-4.9c-0.1,4-0.1,8.1-0.2,12.3c-0.2,0.8-0.7,1.5-1.5,2.2
		c-0.8,0.6-1.7,0.9-2.7,0.9c-0.7-0.1-2.5-1.1-5.2-3.1c-2.7-2-4.1-3.4-4.1-4.1c-0.1-0.6,0.2-1.4,0.7-2.2c0.5-0.8,0.8-1.5,0.9-2v-4
		c-1.4,0-2.7,0.3-3.8,0.9c-1.1,0.6-1.9,0.8-2.3,0.8c-0.7-0.1-2.1-1.4-4.1-4.1c-2-2.7-3-4.4-3.1-5.3c-0.1-1,0.2-1.9,0.9-2.6
		c0.6-0.8,1.4-1.3,2.2-1.4c3,0,6.4,0,10.3-0.1v-5c-2.5,0-4.1,0-4.7,0.1c-0.6,0.1-1.3,0.3-2.1,0.7c-0.8,0.4-1.5,0.6-2.1,0.5
		c-1.3-0.1-2.8-1.3-4.4-3.5c-1.7-2.2-2.5-4.3-2.5-6.1c0-1.8,1-3,3-3.4c0.6-0.1,4.9-0.2,12.8-0.3v-2.5c0-0.3-0.1-1.3-0.4-2.7
		c-0.3-1.5-0.4-2.6-0.4-3.5c0-2.2,1-3.4,2.9-3.4c1.6,0,3.4,0.3,5.5,1c2.4,0.7,3.9,1.6,4.7,2.5c0.3,0.5,0.4,3.3,0.4,8.4h4.1
		c0.1-6.8,0.4-10.5,0.8-11.1c0.4-0.6,1.3-0.9,2.7-0.9c2.6,0,5.7,0.9,9.2,2.7c0.6,0.3,0.9,0.8,0.9,1.6c0,0.5-0.2,1.3-0.6,2.5
		c-0.4,1.1-0.6,1.8-0.6,2.1v3c2-0.1,3.5-0.1,4.8-0.1c0.3,0,1-0.2,2.2-0.6c1.2-0.4,2-0.6,2.6-0.6c0.7,0,1.3,0.3,1.6,0.9
		c1.8,3.5,2.7,6.6,2.7,9.2c0,1.4-0.3,2.4-1,2.9c-0.5,0.3-4.7,0.5-12.8,0.5c-0.1,1-0.1,2.4-0.1,4.2C79.9,127.3,83.4,127.5,83.8,127.8
		z M107.1,160c-0.7,0.8-1.2,1.4-1.4,1.9c-0.4,1.2-0.8,2.3-1.2,3.5c-0.6,1.8-1.4,2.6-2.4,2.3c-2.4-0.5-5.6-2.8-9.5-6.8
		c-0.3-0.3-0.4-0.6-0.3-0.9c0.1-0.2,0.2-0.5,0.3-0.7c0.4-1,0.8-2.1,1.3-3.1c0.5-1.4,0.7-2.6,0.7-3.7c-0.1-0.7,0.3-1.4,1.1-1.9
		c0.8-0.5,1.6-0.7,2.5-0.7c1.3,0,3.2,1,5.5,2.9c2.4,1.9,3.8,3.4,4.2,4.5c0.1,0.2,0.2,0.5,0.2,0.7C108.2,158.6,107.8,159.3,107.1,160
		z M113.5,132.8c-4.6,3.7-7.7,6.8-9.2,9.2c-1.2,1.8-2.1,2.7-2.9,2.5c-2-0.4-4.8-2.9-8.6-7.3c-0.2-0.2-0.3-0.5-0.3-0.9
		c0-1,0.5-2.2,1.4-3.4c1.2-1.5,4.5-4.6,10.1-9.3c5.6-4.7,9.3-8.4,11.4-10.9c3.2-4,4-7.2,2.2-9.5c-1-1.3-2.6-2-4.8-2
		c-4,0-9.1,1.8-15.5,5.4c-0.1,0.1-0.3,0.1-0.5,0.1c-0.9,0-2.2-1-3.9-2.9c-1.4-1.6-2.5-3.1-3.5-4.7c-0.5-0.7-0.3-1.6,0.5-2.6
		c0.8-1,3-2.2,6.8-3.6c4.4-1.6,8.4-2.4,12.2-2.4c3.2,0,5.9,0.6,8,1.9c6.2,3.7,9.6,9.7,10.4,18.1c0.4,4.7-0.9,9-3.9,12.9
		C121.7,125.7,118.4,128.8,113.5,132.8z M189.3,139.3c-3.6,5.2-8.4,7.8-14.3,7.8c-6.1,0-9.9-3.7-11.3-11c-2.5,4.9-4.4,8.3-5.9,10.1
		c-2.8,3.6-5.7,5.4-8.8,5.4c-7.1,0-10.6-4.3-10.6-12.8c0-6.2,1.8-12.6,5.4-19.2c3.6-6.6,7.9-10.9,13-13c0.7-0.3,1.4-0.4,2-0.4
		c2.4,0,4.2,1.8,5.4,5.5c0.2,0.6-0.4,1.1-1.8,1.3c-1.6,0.3-2.5,0.7-2.8,1.4c-3.2,1.7-5.8,5-8,9.8c-1.9,4.3-2.9,8.1-2.9,11.6
		c0,2.7,0.7,4.1,2.1,4.1c1.7,0,3.4-2.2,4.9-6.7c1.4-4,2-7,1.8-9c-0.3-1-0.5-2.4-0.5-4.4c0.4-2.1,2.1-3.2,5.1-3.2
		c2.2,0,4.2,0.5,5.9,1.6c2.1,1.3,3.4,4.9,3.9,10.8c0.4,5.3,1.4,7.9,3.1,7.9c2.8,0,5.2-1.7,7.2-5c2-3.3,3-7.2,3-11.5
		c0-5.1-1.6-9.4-4.8-12.9c-3.6-4.3-9-6.7-16.2-7.3c-8.2-0.8-15.4,2.8-21.7,10.7c-5.8,7.5-8.6,15.6-8.6,24.4c0,5.8,1.6,10.5,4.7,14.1
		c3.4,3.9,8.4,5.9,14.9,5.9c3.1,0,6.5-1.1,10.5-3.3c0.7-0.2,1.7-0.8,2.8-1.8c1.1-1,2.2-1.5,3.2-1.5c2.2,0,3.1,2.4,2.5,7.3
		c-0.2,2.2-0.6,3.7-1.3,4.3s-2.2,1-4.5,1.3c-5.2,2-10.3,2.9-15.2,2.9c-7.5,0-13.5-2.3-18-6.8c-5.4-5.5-8-14-8-25.4
		c0-11.1,3.9-20.7,11.8-28.9c7.9-8.2,17-12.4,27.3-12.4c9.8,0,17.5,3.3,23,9.8c4.8,5.5,7.2,12.4,7.2,20.7
		C194.6,128.4,192.8,134.4,189.3,139.3z M201.7,130.4c0.7-2,1-3.1,1-3.1V94.6c0-1.5,0.9-2.5,2.6-3.1c0.3-0.1,0.8-0.2,1.5-0.2
		c1.6,0,3.5,0.3,5.5,1c2.1,0.7,3.4,1.4,3.9,2.2c0.1,0.2,0.2,1.7,0.2,4.7v35.2c0,0.3,0.1,0.9,0.2,1.5c0.1,0.7,0.2,1.2,0.2,1.6
		c-0.1,2.1-0.7,3.3-1.6,3.5c-0.3,0.1-0.6,0.1-0.9,0.1c-1.7,0-3.8-0.7-6.3-2c-2.5-1.3-4.6-2.9-6.2-4.8
		C201.1,133.8,201.1,132.4,201.7,130.4z M216.8,154.4c-0.2,3-0.3,4.8-0.3,5.5c0,2.3-0.1,4.1-0.3,5.4c-0.2,1.3-1,2-2.2,2.2
		c-0.7,0.2-2.7-0.4-6-1.7c-3.5-1.4-5.5-2.7-6.2-3.7c-0.4-0.6-0.3-1.7,0.4-3.1c0.3-0.6,0.5-1.7,0.6-3.2c-0.1-1.3-0.1-3.7,0-7.3
		c0.2-2.1,1.1-3.1,2.6-3c1.6,0.1,3.9,0.8,6.7,1.9c2.9,1.2,4.4,2.1,4.7,2.7C216.9,150.7,216.9,152.1,216.8,154.4z"/>
	<path class="st1" d="M86.4,122.6c0.7-0.5,1-1.5,1-2.9c0-2.6-0.9-5.7-2.7-9.2c-0.3-0.6-0.8-0.9-1.6-0.9c-0.6,0-1.4,0.2-2.6,0.6
		c-1.2,0.4-1.9,0.6-2.2,0.6c-1.2,0-2.8,0-4.8,0.1v-3c0-0.3,0.2-1,0.6-2.1c0.4-1.1,0.6-1.9,0.6-2.5c0-0.8-0.3-1.4-0.9-1.6
		c-3.6-1.8-6.7-2.7-9.2-2.7c-1.4,0-2.3,0.3-2.7,0.9c-0.4,0.6-0.7,4.3-0.8,11.1H57c0-5.1-0.1-7.9-0.4-8.4c-0.7-0.9-2.3-1.8-4.7-2.5
		c-2.1-0.7-4-1-5.5-1c-1.9,0-2.9,1.1-2.9,3.4c0,0.9,0.1,2,0.4,3.5c0.3,1.5,0.4,2.4,0.4,2.7v2.5c-7.9,0.1-12.2,0.2-12.8,0.3
		c-2,0.4-3,1.5-3,3.4c0,1.8,0.8,3.9,2.5,6.1c1.7,2.2,3.2,3.4,4.4,3.5c0.6,0.1,1.3-0.1,2.1-0.5c0.8-0.4,1.5-0.6,2.1-0.7
		c0.6-0.1,2.1-0.1,4.7-0.1v5c-3.9,0.1-7.3,0.1-10.3,0.1c-0.8,0.2-1.5,0.6-2.2,1.4c-0.6,0.8-0.9,1.7-0.9,2.6c0.1,0.9,1.1,2.6,3.1,5.3
		c2,2.7,3.4,4,4.1,4.1c0.4,0.1,1.2-0.2,2.3-0.8c1.1-0.6,2.4-0.9,3.8-0.9v4c-0.1,0.5-0.3,1.2-0.9,2c-0.5,0.8-0.7,1.5-0.7,2.2
		c0.1,0.8,1.4,2.1,4.1,4.1c2.7,2,4.4,3,5.2,3.1c1,0.1,1.9-0.2,2.7-0.9c0.8-0.6,1.3-1.4,1.5-2.2c0.1-4.2,0.1-8.3,0.2-12.3h4.9
		c-0.1,3.7-0.2,5.9-0.3,6.7c0,0.3-0.2,0.9-0.6,1.9c-0.4,1-0.6,1.8-0.6,2.5s0.2,1.2,0.5,1.7c0.5,0.7,2.1,1.7,4.6,3.1
		c2.6,1.4,4.4,1.9,5.5,1.8c1.2-0.2,2-1.2,2.3-2.9c0.2-5.3,0.4-10.2,0.5-14.8h4.3c0.3,0,1.3,0.1,2.8,0.4c1.5,0.3,2.6,0.4,3.5,0.4
		c2.2,0,3.4-1,3.4-2.9c0-1.6-0.3-3.4-1-5.5c-0.7-2.4-1.6-3.9-2.5-4.7c-0.5-0.3-3.9-0.5-10.3-0.5c0-1.8,0-3.3,0.1-4.2
		C81.7,123.1,85.9,122.9,86.4,122.6z M61.3,127.5c-0.9,0-2.4,0.1-4.5,0.2c0.1-2.1,0.2-3.6,0.2-4.6h4.3V127.5z"/>
	<path class="st1" d="M127.3,110.7c-0.7-8.4-4.2-14.5-10.4-18.1c-2.1-1.3-4.8-1.9-8-1.9c-3.7,0-7.8,0.8-12.2,2.4
		c-3.7,1.4-6,2.6-6.8,3.6c-0.8,1-0.9,1.8-0.5,2.6c0.9,1.6,2.1,3.1,3.5,4.7c1.7,1.9,3,2.9,3.9,2.9c0.2,0,0.4,0,0.5-0.1
		c6.3-3.6,11.5-5.4,15.5-5.4c2.2,0,3.9,0.7,4.8,2c1.7,2.3,1,5.5-2.2,9.5c-2,2.5-5.8,6.2-11.4,10.9c-5.6,4.7-8.9,7.8-10.1,9.3
		c-0.9,1.2-1.4,2.3-1.4,3.4c0,0.3,0.1,0.6,0.3,0.9c3.7,4.5,6.6,6.9,8.6,7.3c0.8,0.2,1.8-0.7,2.9-2.5c1.6-2.4,4.6-5.5,9.2-9.2
		c4.9-4,8.2-7.1,9.8-9.2C126.4,119.6,127.7,115.3,127.3,110.7z"/>
	<path class="st1" d="M103.8,152.9c-2.4-1.9-4.2-2.9-5.5-2.9c-0.9,0-1.8,0.2-2.5,0.7c-0.8,0.5-1.1,1.1-1.1,1.9
		c0.1,1.1-0.2,2.3-0.7,3.7c-0.5,1-0.9,2.1-1.3,3.1c-0.1,0.2-0.2,0.5-0.3,0.7c-0.1,0.3,0,0.6,0.3,0.9c3.9,4,7.1,6.3,9.5,6.8
		c1,0.2,1.8-0.5,2.4-2.3c0.4-1.2,0.8-2.4,1.2-3.5c0.2-0.5,0.6-1.2,1.4-1.9c0.7-0.8,1.1-1.4,1.1-1.9c0-0.2-0.1-0.5-0.2-0.7
		C107.5,156.4,106.1,154.9,103.8,152.9z"/>
	<path class="st1" d="M164.4,91c-10.3,0-19.4,4.1-27.3,12.4c-7.9,8.2-11.8,17.9-11.8,28.9c0,11.4,2.7,19.9,8,25.4
		c4.5,4.6,10.5,6.8,18,6.8c5,0,10-1,15.2-2.9c2.4-0.2,3.9-0.6,4.5-1.3s1.1-2,1.3-4.3c0.6-4.8-0.3-7.3-2.5-7.3c-1,0-2.1,0.5-3.2,1.5
		c-1.1,1-2,1.6-2.8,1.8c-3.9,2.2-7.4,3.3-10.5,3.3c-6.5,0-11.5-2-14.9-5.9c-3.1-3.6-4.7-8.3-4.7-14.1c0-8.8,2.9-17,8.6-24.4
		c6.3-7.9,13.5-11.5,21.7-10.7c7.2,0.6,12.6,3.1,16.2,7.3c3.2,3.5,4.8,7.7,4.8,12.9c0,4.3-1,8.2-3,11.5c-2,3.3-4.4,5-7.2,5
		c-1.7,0-2.7-2.6-3.1-7.9c-0.5-5.9-1.8-9.5-3.9-10.8c-1.7-1.1-3.6-1.6-5.9-1.6c-3,0-4.7,1.1-5.1,3.2c0.1,2,0.2,3.4,0.5,4.4
		c0.2,2-0.4,5-1.8,9c-1.6,4.5-3.2,6.7-4.9,6.7c-1.4,0-2.1-1.4-2.1-4.1c0-3.5,1-7.3,2.9-11.6c2.2-4.9,4.9-8.2,8-9.8
		c0.2-0.6,1.2-1.1,2.8-1.4c1.4-0.2,2-0.7,1.8-1.3c-1.2-3.7-3-5.5-5.4-5.5c-0.6,0-1.2,0.1-2,0.4c-5,2-9.3,6.3-13,13
		c-3.6,6.6-5.4,13-5.4,19.2c0,8.5,3.5,12.8,10.6,12.8c3.1,0,6-1.8,8.8-5.4c1.4-1.8,3.4-5.2,5.9-10.1c1.4,7.3,5.2,11,11.3,11
		c5.9,0,10.7-2.6,14.3-7.8c3.5-4.9,5.3-10.8,5.3-17.8c0-8.3-2.4-15.2-7.2-20.7C181.9,94.2,174.3,91,164.4,91z"/>
	<path class="st1" d="M208,139.3c2.5,1.3,4.6,2,6.3,2c0.3,0,0.6,0,0.9-0.1c1-0.2,1.5-1.4,1.6-3.5c0-0.4-0.1-0.9-0.2-1.6
		c-0.1-0.7-0.2-1.2-0.2-1.5V99.3c0-2.9-0.1-4.5-0.2-4.7c-0.5-0.8-1.8-1.6-3.9-2.2c-2.1-0.7-3.9-1-5.5-1c-0.6,0-1.1,0.1-1.5,0.2
		c-1.7,0.6-2.6,1.6-2.6,3.1v32.7c0,0.1-0.3,1.1-1,3.1c-0.7,2-0.7,3.4,0,4.1C203.4,136.3,205.4,137.9,208,139.3z"/>
	<path class="st1" d="M212.1,147.4c-2.9-1.2-5.1-1.8-6.7-1.9c-1.5-0.1-2.4,1-2.6,3c-0.1,3.6-0.1,6,0,7.3c-0.1,1.5-0.3,2.6-0.6,3.2
		c-0.7,1.4-0.8,2.5-0.4,3.1c0.7,1,2.8,2.3,6.2,3.7c3.3,1.3,5.3,1.9,6,1.7c1.2-0.2,1.9-1,2.2-2.2c0.2-1.3,0.3-3.1,0.3-5.4
		c0-0.7,0.1-2.5,0.3-5.5c0.2-2.3,0.2-3.7,0-4.2C216.5,149.5,215,148.6,212.1,147.4z"/>
</g>
</svg>
