<svg version="1.1"  xmlns="http://www.w3.org/2000/svg" xmlns:xlink="http://www.w3.org/1999/xlink" x="0px" y="0px" viewBox="0 0 512 512" xml:space="preserve">
<path  d="M256,80c-97.2,0-176,78.8-176,176c0,41.6,5,68.3,26.2,96.4c3.2,4.2,4.1,9.8,2.3,14.8
	c-4.9,14.4-12.3,35.9-18.4,53.8l-1.3,3.8l13.8-3.7c22.3-6,46.2-12.4,53.2-14.3c4.1-1.1,8.5-0.5,12.2,1.6c25.9,15,55.9,23.5,88,23.5
	c97.2,0,176-78.8,176-176C432,158.8,353.2,80,256,80z M53.4,464c-15.1-5.2-4.6-21.2-4.6-21.2l11-32.2c5.1-14.9,11-32.3,15.7-46
	C52.8,331,48,297.9,48,256c0-114.9,93.1-208,208-208c114.9,0,208,93.1,208,208c0,114.9-93.1,208-208,208c-35.5,0-68.9-8.9-98.1-24.6
	c-10.5,2.8-29.3,7.9-47,12.6l-42.7,11.4L53.4,464z"/>
</svg>
