<?xml version="1.0" standalone="no"?>
<!DOCTYPE svg PUBLIC "-//W3C//DTD SVG 20010904//EN"
 "http://www.w3.org/TR/2001/REC-SVG-20010904/DTD/svg10.dtd">
<svg version="1.0" xmlns="http://www.w3.org/2000/svg"
 width="700.000000pt" height="700.000000pt" viewBox="0 0 700.000000 700.000000"
 preserveAspectRatio="xMidYMid meet">
<metadata>
Created by potrace 1.14, written by Peter Selinger 2001-2017
</metadata>
<g transform="translate(0.000000,700.000000) scale(0.100000,-0.100000)"
fill="#000000" stroke="none">
<path d="M2299 6366 c-2 -2 -35 -7 -74 -11 -61 -6 -252 -36 -310 -49 -63 -14
-234 -64 -260 -76 -11 -5 -55 -23 -98 -40 -538 -210 -1001 -705 -1266 -1355
-5 -11 -14 -33 -21 -50 -34 -84 -108 -345 -127 -445 -2 -14 -8 -43 -13 -65 -5
-22 -12 -67 -15 -100 -4 -33 -9 -63 -11 -66 -8 -14 -18 -210 -18 -359 0 -215
9 -318 44 -500 173 -880 816 -1519 1783 -1770 84 -22 170 -42 192 -46 22 -3
43 -8 46 -10 3 -2 21 -6 40 -9 19 -3 61 -10 94 -16 62 -11 71 -13 140 -24 56
-10 73 -12 130 -20 28 -4 57 -9 65 -10 9 -2 43 -6 75 -10 33 -4 71 -9 85 -11
23 -4 99 -14 145 -19 11 -1 31 -3 45 -4 20 -1 9 -12 -60 -57 -308 -199 -677
-341 -1090 -419 -74 -14 -152 -27 -172 -28 -21 -1 -38 -5 -38 -8 0 -11 259
-81 365 -99 28 -5 61 -11 74 -14 13 -3 49 -8 80 -12 31 -3 58 -8 61 -9 44 -26
710 -26 850 0 8 1 40 6 70 9 30 4 114 18 185 32 350 68 687 183 1009 346 l100
50 85 -8 c48 -4 95 -8 106 -10 158 -18 625 -25 780 -11 478 41 817 170 1045
396 161 160 250 339 354 711 32 115 97 398 111 480 3 19 12 71 20 115 15 89
23 136 30 198 3 23 7 52 9 64 3 12 8 57 11 100 4 43 8 80 10 83 16 28 26 567
13 690 -8 67 -9 72 -28 155 -37 164 -174 415 -337 618 -61 76 -269 290 -338
347 -106 88 -141 115 -240 187 -60 43 -153 106 -206 138 -52 33 -104 66 -115
73 -10 6 -30 18 -44 24 -14 7 -56 31 -95 53 -262 152 -723 349 -1150 490 -250
83 -694 209 -805 228 -14 3 -43 9 -65 15 -37 10 -216 48 -275 58 -14 3 -63 12
-110 20 -102 19 -105 20 -200 33 -41 6 -91 14 -110 17 -39 7 -555 16 -561 10z
m598 -1852 c-3 -3 -12 -4 -19 -1 -8 3 -5 6 6 6 11 1 17 -2 13 -5z m-120 -20
c-3 -3 -12 -4 -19 -1 -8 3 -5 6 6 6 11 1 17 -2 13 -5z m-87 -24 c-8 -5 -19
-10 -25 -10 -5 0 -3 5 5 10 8 5 20 10 25 10 6 0 3 -5 -5 -10z m521 -7 c13 -16
12 -17 -3 -4 -17 13 -22 21 -14 21 2 0 10 -8 17 -17z m-666 -53 c-3 -5 -12
-10 -18 -10 -7 0 -6 4 3 10 19 12 23 12 15 0z m2632 -228 c74 -103 118 -225
146 -404 2 -16 0 -28 -4 -28 -5 0 -9 13 -9 29 0 46 -27 162 -53 232 -42 110
-79 169 -176 274 l-55 60 53 -50 c29 -27 73 -78 98 -113z m-3620 -24 c-3 -8
-6 -5 -6 6 -1 11 2 17 5 13 3 -3 4 -12 1 -19z m473 -55 c-11 -17 -11 -17 -6 0
3 10 6 24 7 30 0 9 2 9 5 0 3 -7 0 -20 -6 -30z m-463 -88 c0 -8 -4 -12 -9 -9
-5 3 -6 10 -3 15 9 13 12 11 12 -6z m2916 -45 c3 -11 1 -18 -4 -14 -5 3 -9 12
-9 20 0 20 7 17 13 -6z m-583 -4 c0 -2 -8 -10 -17 -17 -16 -13 -17 -12 -4 4
13 16 21 21 21 13z m-50 -70 c0 -2 -8 -10 -17 -17 -16 -13 -17 -12 -4 4 13 16
21 21 21 13z m-750 -49 c0 -2 -10 -12 -22 -23 l-23 -19 19 23 c18 21 26 27 26
19z m-59 -60 c-10 -9 -11 -8 -5 6 3 10 9 15 12 12 3 -3 0 -11 -7 -18z m1239
20 c0 -2 -12 -14 -27 -28 l-28 -24 24 28 c23 25 31 32 31 24z m-66 -82 c-9
-14 -18 -25 -21 -25 -5 0 5 18 20 38 17 22 18 13 1 -13z m-1817 -7 c-3 -8 -6
-5 -6 6 -1 11 2 17 5 13 3 -3 4 -12 1 -19z m2930 2 c1 -11 -2 -18 -8 -15 -11
7 -12 35 -1 35 4 0 8 -9 9 -20z m-2377 -14 c0 -2 -8 -10 -17 -17 -16 -13 -17
-12 -4 4 13 16 21 21 21 13z m2380 -31 c0 -8 -4 -15 -8 -15 -5 0 -9 7 -9 15 0
8 4 15 9 15 4 0 8 -7 8 -15z m-2949 -18 c-10 -9 -11 -8 -5 6 3 10 9 15 12 12
3 -3 0 -11 -7 -18z m509 0 c0 -2 -10 -12 -22 -23 l-23 -19 19 23 c18 21 26 27
26 19z m2432 -59 c-6 -72 -13 -75 -11 -5 1 31 5 57 9 57 4 0 5 -24 2 -52z
m-3301 15 c-4 -16 -7 -42 -6 -60 1 -18 -2 -30 -5 -28 -6 4 -6 36 -1 98 0 9 5
17 10 17 6 0 6 -12 2 -27z m2130 4 c-10 -9 -11 -8 -5 6 3 10 9 15 12 12 3 -3
0 -11 -7 -18z m-1321 -11 c0 -2 -8 -10 -17 -17 -16 -13 -17 -12 -4 4 13 16 21
21 21 13z m-80 -70 c0 -2 -8 -10 -17 -17 -16 -13 -17 -12 -4 4 13 16 21 21 21
13z m1947 -28 c-3 -8 -6 -5 -6 6 -1 11 2 17 5 13 3 -3 4 -12 1 -19z m610 -10
c-3 -7 -5 -2 -5 12 0 14 2 19 5 13 2 -7 2 -19 0 -25z m-1630 -20 c-3 -8 -6 -5
-6 6 -1 11 2 17 5 13 3 -3 4 -12 1 -19z m1027 -4 c3 -8 2 -12 -4 -9 -6 3 -10
10 -10 16 0 14 7 11 14 -7z m593 -16 c-3 -8 -6 -5 -6 6 -1 11 2 17 5 13 3 -3
4 -12 1 -19z m-1630 -30 c-3 -8 -6 -5 -6 6 -1 11 2 17 5 13 3 -3 4 -12 1 -19z
m-1057 -22 c0 -2 -8 -10 -17 -17 -16 -13 -17 -12 -4 4 13 16 21 21 21 13z
m1467 -18 c-3 -8 -6 -5 -6 6 -1 11 2 17 5 13 3 -3 4 -12 1 -19z m-412 -48 c3
-5 1 -10 -4 -10 -6 0 -11 5 -11 10 0 6 2 10 4 10 3 0 8 -4 11 -10z m1558 -75
c-3 -9 -8 -14 -10 -11 -3 3 -2 9 2 15 9 16 15 13 8 -4z m-2836 -32 c-3 -10 -5
-4 -5 12 0 17 2 24 5 18 2 -7 2 -21 0 -30z m2064 -6 c-10 -9 -11 -8 -5 6 3 10
9 15 12 12 3 -3 0 -11 -7 -18z m-2071 -41 c0 -2 -8 -10 -17 -17 -16 -13 -17
-12 -4 4 13 16 21 21 21 13z m2790 -10 c0 -2 -8 -10 -17 -17 -16 -13 -17 -12
-4 4 13 16 21 21 21 13z m-4060 -30 c0 -3 -4 -8 -10 -11 -5 -3 -10 -1 -10 4 0
6 5 11 10 11 6 0 10 -2 10 -4z m437 -38 c2 -17 0 -19 -7 -8 -5 8 -6 18 -4 22
8 12 10 10 11 -14z m2833 -8 c-6 -11 -13 -20 -16 -20 -2 0 0 9 6 20 6 11 13
20 16 20 2 0 0 -9 -6 -20z m-30 -54 c0 -2 -8 -10 -17 -17 -16 -13 -17 -12 -4
4 13 16 21 21 21 13z m-30 -39 c0 -2 -10 -12 -22 -23 l-23 -19 19 23 c18 21
26 27 26 19z m-549 -64 c13 -16 12 -17 -3 -4 -17 13 -22 21 -14 21 2 0 10 -8
17 -17z m-2234 -115 c-3 -7 -5 -2 -5 12 0 14 2 19 5 13 2 -7 2 -19 0 -25z m-7
-21 c0 -2 -10 -12 -22 -23 l-23 -19 19 23 c18 21 26 27 26 19z m3187 -49 c-3
-8 -6 -5 -6 6 -1 11 2 17 5 13 3 -3 4 -12 1 -19z m-2727 -22 c0 -3 -4 -8 -10
-11 -5 -3 -10 -1 -10 4 0 6 5 11 10 11 6 0 10 -2 10 -4z m-25 -36 c-3 -5 -12
-10 -18 -10 -7 0 -6 4 3 10 19 12 23 12 15 0z m2736 -53 c-10 -9 -11 -8 -5 6
3 10 9 15 12 12 3 -3 0 -11 -7 -18z"/>
</g>
</svg>
