<svg height="512" viewBox="0 0 512 512" width="512" xmlns="http://www.w3.org/2000/svg">
<g id="ARROW_48" data-name="ARROW 48">
<path d="m123.19 137.32 33.81 33.85c9.51 9.51 25.31 9.74 34.64.05a24 24 0 0 0 -.32-33.61l-74.68-74.78a24.67 24.67 0 0 0 -34.9 0l-74.74 74.76a24 24 0 0 0 34 33.94l34.21-34.21v230a89.16 89.16 0 0 0 89.06 89.06h127.73a24 24 0 0 0 0-48h-127.73a41.11 41.11 0 0 1 -41.06-41.06z"/><path d="m388.81 374.68-33.81-33.85c-9.51-9.51-25.31-9.74-34.64-.05a24 24 0 0 0 .32 33.61l74.72 74.78a24.67 24.67 0 0 0 34.9 0l74.7-74.76a24 24 0 0 0 -34-33.94l-34.21 34.21v-230a89.16 89.16 0 0 0 -89.06-89.08h-127.73a24 24 0 0 0 0 48h127.73a41.11 41.11 0 0 1 41.06 41.06z"/></g></svg>